<svg xmlns="http://www.w3.org/2000/svg" width="16" height="16" viewBox="0 0 16 16">
  <defs>
    <linearGradient id="pg" x1="0%" y1="0%" x2="0%" y2="100%">
      <stop offset="0%" style="stop-color:#00ADD8;stop-opacity:1"/>
      <stop offset="100%" style="stop-color:#007D9E;stop-opacity:1"/>
    </linearGradient>
  </defs>
  <path d="M1 4.5A1.5 1.5 0 0 1 2.5 3h4l1 1h6a1 1 0 0 1 1 1v6.5a1.5 1.5 0 0 1-1.5 1.5h-10A1.5 1.5 0 0 1 1 11.5z" fill="url(#pg)"/>
  <path d="M2 5v6a1 1 0 0 0 1 1h10a1 1 0 0 0 1-1V6a1 1 0 0 0-1-1H8l-1-1H3a1 1 0 0 0-1 1z" fill="#E8F8FF" opacity="0.3"/>
</svg>
